Coordinates
version=1
nRows=20
nColumns=38
inDegrees=no

Units are S.I. units (second, meters, Newtons, ...)
If the header above contains a line with 'inDegrees', this indicates whether rotational values are in degrees (yes) or radians (no).

endheader
time	pelvis_tilt	pelvis_list	pelvis_rotation	pelvis_tx	pelvis_ty	pelvis_tz	hip_flexion_r	hip_adduction_r	hip_rotation_r	knee_angle_r	ankle_angle_r	subtalar_angle_r	mtp_angle_r	hip_flexion_l	hip_adduction_l	hip_rotation_l	knee_angle_l	ankle_angle_l	subtalar_angle_l	mtp_angle_l	lumbar_extension	lumbar_bending	lumbar_rotation	arm_flex_r	arm_add_r	arm_rot_r	elbow_flex_r	pro_sup_r	wrist_flex_r	wrist_dev_r	arm_flex_l	arm_add_l	arm_rot_l	elbow_flex_l	pro_sup_l	wrist_flex_l	wrist_dev_l
1.24	-0.424055	1.50175	-0.951323	0.708725	0.385446	0.940969	0.300109	-0.0639957	-0.372423	0.478182	0.0656757	0	0	0.126845	-0.118646	0.112636	1.25935	-0.116999	0	0	-0.0779464	0.0878511	-0.200222	-0.159187	-0.158574	0.134389	0.433859	1.11165	0	0	-0.106511	-0.225685	0.305224	0.704191	0.911946	0	0
1.25	-0.384896	1.49937	-0.991854	0.707836	0.375322	0.943119	0.279655	-0.0589963	-0.369397	0.468893	0.0701548	0	0	0.150259	-0.111033	0.116087	1.28896	-0.0950544	0	0	-0.0824291	0.0874897	-0.19586	-0.153029	-0.161601	0.127181	0.440844	1.1107	0	0	-0.109388	-0.225429	0.307566	0.700455	0.908994	0	0
1.26	-0.345412	1.49773	-1.03433	0.706812	0.365282	0.945275	0.258703	-0.0537905	-0.365381	0.455997	0.0735456	0	0	0.173408	-0.103032	0.11677	1.313	-0.0768097	0	0	-0.0865205	0.0863396	-0.190086	-0.1464	-0.164497	0.120503	0.447749	1.10799	0	0	-0.112601	-0.225273	0.309765	0.698363	0.902773	0	0
1.27	-0.313128	1.4973	-1.07155	0.705594	0.355346	0.94732	0.238752	-0.0482793	-0.360683	0.441225	0.0764848	0	0	0.197208	-0.0954239	0.114809	1.33181	-0.0638187	0	0	-0.0892938	0.0847155	-0.182708	-0.139629	-0.167888	0.116859	0.454805	1.10347	0	0	-0.116739	-0.225217	0.3115	0.697708	0.896639	0	0
1.28	-0.287687	1.49724	-1.10259	0.704288	0.345389	0.949262	0.218684	-0.0423017	-0.356332	0.424818	0.0789544	0	0	0.22097	-0.0888844	0.111446	1.34556	-0.0554998	0	0	-0.0913412	0.083172	-0.174836	-0.132376	-0.171644	0.117223	0.460791	1.09726	0	0	-0.121686	-0.225276	0.312492	0.698286	0.89165	0	0
1.29	-0.265122	1.49674	-1.13128	0.70298	0.335514	0.951172	0.197375	-0.0356919	-0.351637	0.406413	0.080792	0	0	0.243723	-0.0836664	0.106444	1.3545	-0.0502349	0	0	-0.0936115	0.0819016	-0.166564	-0.124228	-0.175823	0.12158	0.465381	1.0892	0	0	-0.127036	-0.225229	0.313099	0.699685	0.887364	0	0
1.3	-0.240776	1.49529	-1.16267	0.70159	0.325692	0.953072	0.174339	-0.0286412	-0.346505	0.386191	0.0819774	0	0	0.264515	-0.0797691	0.0997868	1.35883	-0.046641	0	0	-0.0969795	0.0807392	-0.157472	-0.115479	-0.180356	0.127381	0.47018	1.07872	0	0	-0.1327	-0.225179	0.312908	0.701877	0.883233	0	0
1.31	-0.211544	1.49404	-1.19943	0.700254	0.315916	0.954844	0.151424	-0.0225569	-0.341814	0.366252	0.0832601	0	0	0.284273	-0.075945	0.0919055	1.35867	-0.0432687	0	0	-0.100448	0.0788628	-0.14807	-0.106018	-0.184773	0.134394	0.474128	1.06644	0	0	-0.138771	-0.225242	0.311375	0.705101	0.879311	0	0
1.32	-0.187943	1.48853	-1.23105	0.698595	0.306009	0.956928	0.119267	-0.0118676	-0.328317	0.334974	0.0793915	0	0	0.297566	-0.0753665	0.0826426	1.35298	-0.0379976	0	0	-0.108505	0.078609	-0.138824	-0.0938476	-0.188386	0.141039	0.472937	1.0736	0	0	-0.145228	-0.222579	0.298013	0.70655	0.899625	0	0
1.33	-0.146389	1.48485	-1.28231	0.696991	0.296205	0.958679	0.0921397	-0.00607983	-0.31615	0.311581	0.0788852	0	0	0.311003	-0.0729073	0.0705487	1.34375	-0.0301941	0	0	-0.115333	0.0756201	-0.12801	-0.0819633	-0.192592	0.151956	0.473375	1.06903	0	0	-0.151236	-0.221673	0.291488	0.708198	0.902833	0	0
1.34	-0.0987653	1.48109	-1.34016	0.69542	0.286487	0.960293	0.0661808	-0.00241031	-0.303839	0.291027	0.0795745	0	0	0.322786	-0.0700944	0.0573367	1.33085	-0.0200942	0	0	-0.122347	0.0713867	-0.116999	-0.0694023	-0.196475	0.162933	0.472985	1.06587	0	0	-0.157086	-0.220856	0.285412	0.709377	0.906185	0	0
1.35	-0.0480788	1.4769	-1.40148	0.693847	0.276794	0.961747	0.0409454	-0.00031859	-0.291162	0.272468	0.08103	0	0	0.332797	-0.06745	0.0430365	1.31462	-0.00769717	0	0	-0.129817	0.0662498	-0.105545	-0.0569081	-0.200296	0.173759	0.472828	1.0634	0	0	-0.162672	-0.220112	0.278622	0.711095	0.908524	0	0
1.36	-0.000262496	1.47253	-1.46008	0.692308	0.267147	0.963016	0.0165053	0.000860039	-0.277734	0.255195	0.0827779	0	0	0.342182	-0.065477	0.0273978	1.29567	0.00618983	0	0	-0.137255	0.0607258	-0.0939001	-0.0442812	-0.203943	0.184778	0.472275	1.0612	0	0	-0.167767	-0.219421	0.272369	0.712456	0.909941	0	0
1.37	0.042544	1.46866	-1.51345	0.690831	0.257642	0.964035	-0.00641631	0.00129808	-0.263556	0.239329	0.0848612	0	0	0.351713	-0.0639611	0.0110715	1.27389	0.0202002	0	0	-0.144131	0.0551742	-0.0823608	-0.0314963	-0.207526	0.196028	0.471726	1.05898	0	0	-0.171826	-0.21849	0.267242	0.712424	0.910282	0	0
1.38	0.081255	1.46508	-1.56237	0.689464	0.24824	0.96484	-0.0279851	0.00101048	-0.250556	0.225063	0.0876346	0	0	0.360775	-0.0625165	-0.00498245	1.24908	0.0335788	0	0	-0.150614	0.0496891	-0.0710619	-0.0186586	-0.211042	0.207035	0.471236	1.05626	0	0	-0.175316	-0.217684	0.26368	0.712171	0.909384	0	0
1.39	0.115497	1.46268	-1.6055	0.688412	0.238932	0.965355	-0.046024	-0.00024089	-0.242856	0.21529	0.0923233	0	0	0.370713	-0.0615409	-0.0204411	1.22184	0.0452715	0	0	-0.155633	0.0445423	-0.0609527	-0.00620594	-0.214234	0.216444	0.471338	1.05218	0	0	-0.178581	-0.217167	0.261935	0.712237	0.906752	0	0
1.4	0.130571	1.45575	-1.62871	0.686995	0.229371	0.96623	-0.0775139	0.00311087	-0.221327	0.187941	0.0878762	0	0	0.373019	-0.0638578	-0.0372473	1.19015	0.0568494	0	0	-0.165464	0.0408288	-0.0526171	0.00874394	-0.214241	0.21334	0.465113	1.09079	0	0	-0.182495	-0.215165	0.252739	0.711774	0.918789	0	0
1.41	0.153038	1.45208	-1.659	0.685982	0.21995	0.966615	-0.10028	0.00311469	-0.208668	0.171243	0.088859	0	0	0.378433	-0.0652194	-0.054698	1.15668	0.066503	0	0	-0.171463	0.0364282	-0.0445251	0.0215296	-0.216821	0.222294	0.464579	1.09277	0	0	-0.185673	-0.214064	0.249995	0.710572	0.916691	0	0
1.42	0.172814	1.44957	-1.68649	0.685115	0.210621	0.966776	-0.121056	0.00287148	-0.196471	0.155884	0.0903607	0	0	0.383992	-0.0673308	-0.0735428	1.1208	0.0742518	0	0	-0.175944	0.0323237	-0.0367747	0.0340231	-0.219058	0.230664	0.464036	1.09398	0	0	-0.188921	-0.212978	0.248189	0.709041	0.913619	0	0
1.43	0.191779	1.44771	-1.71166	0.684286	0.201224	0.966733	-0.13998	0.00210503	-0.18687	0.142849	0.0928309	0	0	0.389322	-0.068871	-0.0918989	1.08272	0.0804353	0	0	-0.179596	0.0284632	-0.0306579	0.0461524	-0.220881	0.238016	0.463882	1.09423	0	0	-0.192107	-0.212011	0.247043	0.707436	0.910172	0	0
